<svg width="24" height="24" viewBox="0 0 24 24" fill="none" xmlns="http://www.w3.org/2000/svg">
<path fill-rule="evenodd" clip-rule="evenodd" d="M3 5.99337C3 5.57918 3.33577 5.24341 3.74996 5.24341H12.2475C12.6617 5.24341 12.9975 5.57918 12.9975 5.99337C12.9975 6.40756 12.6617 6.74332 12.2475 6.74332H3.74996C3.33577 6.74332 3 6.40756 3 5.99337Z" fill="black"/>
<path fill-rule="evenodd" clip-rule="evenodd" d="M11.002 11.9961C11.002 11.5819 11.3377 11.2461 11.7519 11.2461H20.2495C20.6637 11.2461 20.9995 11.5819 20.9995 11.9961C20.9995 12.4103 20.6637 12.746 20.2495 12.746H11.7519C11.3377 12.746 11.002 12.4103 11.002 11.9961Z" fill="black"/>
<path fill-rule="evenodd" clip-rule="evenodd" d="M3 17.9925C3 17.5783 3.33577 17.2425 3.74996 17.2425H8.2497C8.6639 17.2425 8.99966 17.5783 8.99966 17.9925C8.99966 18.4066 8.6639 18.7424 8.2497 18.7424H3.74996C3.33577 18.7424 3 18.4066 3 17.9925Z" fill="black"/>
<path fill-rule="evenodd" clip-rule="evenodd" d="M15.75 3C16.1642 3 16.5 3.33577 16.5 3.74996L16.5 8.2497C16.5 8.6639 16.1642 8.99966 15.75 8.99966C15.3359 8.99966 15.0001 8.6639 15.0001 8.2497L15.0001 3.74996C15.0001 3.33577 15.3359 3 15.75 3Z" fill="black"/>
<path fill-rule="evenodd" clip-rule="evenodd" d="M15.002 5.99337C15.002 5.57918 15.3377 5.24341 15.7519 5.24341L20.2517 5.24341C20.6658 5.24341 21.0016 5.57918 21.0016 5.99337C21.0016 6.40756 20.6658 6.74332 20.2517 6.74332L15.7519 6.74332C15.3377 6.74332 15.002 6.40756 15.002 5.99337Z" fill="black"/>
<path fill-rule="evenodd" clip-rule="evenodd" d="M8.25191 14.9998C7.83772 14.9998 7.50195 14.664 7.50195 14.2498L7.50195 9.75005C7.50195 9.33586 7.83772 9.00009 8.25191 9.00009C8.6661 9.00009 9.00187 9.33586 9.00187 9.75005L9.00187 14.2498C9.00187 14.664 8.6661 14.9998 8.25191 14.9998Z" fill="black"/>
<path fill-rule="evenodd" clip-rule="evenodd" d="M9 12.0064C9 12.4206 8.66423 12.7563 8.25004 12.7563L3.7503 12.7563C3.3361 12.7563 3.00034 12.4206 3.00034 12.0064C3.00034 11.5922 3.3361 11.2564 3.7503 11.2564L8.25004 11.2564C8.66423 11.2564 9 11.5922 9 12.0064Z" fill="black"/>
<path fill-rule="evenodd" clip-rule="evenodd" d="M11.75 14.9998C12.1642 14.9998 12.5 15.3355 12.5 15.7497L12.5 20.2495C12.5 20.6637 12.1642 20.9994 11.75 20.9994C11.3359 20.9994 11.0001 20.6637 11.0001 20.2495L11.0001 15.7497C11.0001 15.3355 11.3359 14.9998 11.75 14.9998Z" fill="black"/>
<path fill-rule="evenodd" clip-rule="evenodd" d="M11.002 17.9931C11.002 17.5789 11.3377 17.2432 11.7519 17.2432L20.2495 17.2432C20.6637 17.2432 20.9995 17.5789 20.9995 17.9931C20.9995 18.4073 20.6637 18.7431 20.2495 18.7431L11.7519 18.7431C11.3377 18.7431 11.002 18.4073 11.002 17.9931Z" fill="black"/>
</svg>
